<svg width="36" height="37" viewBox="0 0 36 37" fill="none" xmlns="http://www.w3.org/2000/svg">
<path d="M26.25 10.3056H26.265M10.5 3.5556H25.5C29.6421 3.5556 33 6.91347 33 11.0556V26.0556C33 30.1977 29.6421 33.5556 25.5 33.5556H10.5C6.35786 33.5556 3 30.1977 3 26.0556V11.0556C3 6.91347 6.35786 3.5556 10.5 3.5556ZM24 17.6106C24.1851 18.859 23.9719 20.1339 23.3906 21.2541C22.8094 22.3743 21.8897 23.2827 20.7624 23.8501C19.6352 24.4175 18.3577 24.615 17.1117 24.4145C15.8657 24.214 14.7146 23.6257 13.8223 22.7333C12.9299 21.841 12.3416 20.6899 12.1411 19.4439C11.9406 18.1979 12.1381 16.9204 12.7055 15.7932C13.2729 14.6659 14.1813 13.7462 15.3015 13.165C16.4217 12.5837 17.6966 12.3705 18.945 12.5556C20.2184 12.7444 21.3973 13.3378 22.3075 14.2481C23.2178 15.1583 23.8112 16.3372 24 17.6106Z" stroke="#1E1E1E" stroke-width="4" stroke-linecap="round" stroke-linejoin="round"/>
</svg>
