<svg width="65" height="64" viewBox="0 0 65 64" fill="none" xmlns="http://www.w3.org/2000/svg">
<rect x="0.5" width="64" height="64" rx="10" fill="white"/>
<path d="M47.1666 17.3333H47.1933M19.1666 5.33325H45.8333C53.197 5.33325 59.1666 11.3028 59.1666 18.6666V45.3333C59.1666 52.697 53.197 58.6666 45.8333 58.6666H19.1666C11.8028 58.6666 5.83325 52.697 5.83325 45.3333V18.6666C5.83325 11.3028 11.8028 5.33325 19.1666 5.33325ZM43.1666 30.3199C43.4957 32.5392 43.1166 34.8058 42.0833 36.7973C41.0499 38.7888 39.415 40.4037 37.4109 41.4124C35.4069 42.4211 33.1358 42.7722 30.9207 42.4157C28.7056 42.0593 26.6593 41.0135 25.0728 39.427C23.4864 37.8406 22.4405 35.7943 22.0841 33.5792C21.7277 31.3641 22.0788 29.093 23.0875 27.0889C24.0962 25.0849 25.7111 23.4499 27.7025 22.4166C29.694 21.3832 31.9606 21.0042 34.1799 21.3333C36.4437 21.6689 38.5395 22.7238 40.1578 24.3421C41.776 25.9603 42.8309 28.0561 43.1666 30.3199Z" stroke="#1E1E1E" stroke-width="4" stroke-linecap="round" stroke-linejoin="round"/>
</svg>
