<svg width="37" height="37" viewBox="0 0 37 37" fill="none" xmlns="http://www.w3.org/2000/svg">
<g clip-path="url(#clip0_7_375)">
<path d="M35 4.61115C33.5636 5.62436 31.9732 6.39931 30.29 6.90615C29.3866 5.86741 28.186 5.13118 26.8506 4.79703C25.5151 4.46289 24.1092 4.54694 22.8231 5.03783C21.537 5.52871 20.4327 6.40275 19.6595 7.54172C18.8863 8.68069 18.4815 10.0296 18.5 11.4061V12.9061C15.864 12.9745 13.2519 12.3899 10.8965 11.2043C8.54112 10.0188 6.51548 8.2691 5 6.11115C5 6.11115 -1 19.6111 12.5 25.6111C9.41079 27.7081 5.73074 28.7595 2 28.6111C15.5 36.1111 32 28.6111 32 11.3611C31.9986 10.9433 31.9584 10.5265 31.88 10.1161C33.4109 8.60639 34.4912 6.70021 35 4.61115Z" stroke="#1E1E1E" stroke-width="4" stroke-linecap="round" stroke-linejoin="round"/>
</g>
<defs>
<clipPath id="clip0_7_375">
<rect width="36" height="36" fill="white" transform="translate(0.5 0.111145)"/>
</clipPath>
</defs>
</svg>
