<svg width="65" height="64" viewBox="0 0 65 64" fill="none" xmlns="http://www.w3.org/2000/svg">
<rect x="0.5" width="64" height="64" rx="10" fill="white"/>
<path d="M61.8334 7.99996C59.2798 9.80123 56.4524 11.1789 53.4601 12.08C51.8541 10.2333 49.7196 8.92447 47.3455 8.33043C44.9714 7.73639 42.4721 7.88581 40.1856 8.7585C37.8992 9.63119 35.9359 11.185 34.5614 13.2099C33.1868 15.2347 32.4673 17.6329 32.5001 20.08V22.7466C27.8138 22.8681 23.1701 21.8288 18.9828 19.7211C14.7954 17.6135 11.1943 14.503 8.50008 10.6666C8.50008 10.6666 -2.16658 34.6666 21.8334 45.3333C16.3415 49.0612 9.79917 50.9304 3.16675 50.6666C27.1667 64 56.5001 50.6666 56.5001 20C56.4976 19.2572 56.4262 18.5162 56.2867 17.7866C59.0084 15.1026 60.929 11.7139 61.8334 7.99996Z" stroke="#1E1E1E" stroke-width="4" stroke-linecap="round" stroke-linejoin="round"/>
</svg>
