<svg width="65" height="64" viewBox="0 0 65 64" fill="none" xmlns="http://www.w3.org/2000/svg">
<rect x="0.5" width="64" height="64" rx="10" fill="white"/>
<path d="M60.6066 17.1201C60.2898 15.8545 59.6447 14.6949 58.7363 13.7585C57.828 12.8221 56.6886 12.1419 55.4332 11.7867C50.8466 10.6667 32.4999 10.6667 32.4999 10.6667C32.4999 10.6667 14.1532 10.6667 9.56656 11.8934C8.31122 12.2486 7.17184 12.9287 6.26349 13.8652C5.35514 14.8016 4.71 15.9612 4.39323 17.2267C3.5538 21.8816 3.14319 26.6036 3.16656 31.3334C3.13664 36.0989 3.54728 40.8569 4.39323 45.5467C4.74245 46.773 5.40205 47.8885 6.30828 48.7854C7.21451 49.6822 8.33675 50.3302 9.56656 50.6667C14.1532 51.8934 32.4999 51.8934 32.4999 51.8934C32.4999 51.8934 50.8466 51.8934 55.4332 50.6667C56.6886 50.3116 57.828 49.6314 58.7363 48.695C59.6447 47.7586 60.2898 46.599 60.6066 45.3334C61.4395 40.7136 61.8501 36.0276 61.8332 31.3334C61.8632 26.568 61.4525 21.8099 60.6066 17.1201Z" stroke="#1E1E1E" stroke-width="4" stroke-linecap="round" stroke-linejoin="round"/>
<path d="M26.4999 40.0534L41.8332 31.3334L26.4999 22.6134V40.0534Z" stroke="#1E1E1E" stroke-width="4" stroke-linecap="round" stroke-linejoin="round"/>
</svg>
